<?xml version="1.0" standalone="no"?>
<!DOCTYPE svg PUBLIC "-//W3C//DTD SVG 20010904//EN"
 "http://www.w3.org/TR/2001/REC-SVG-20010904/DTD/svg10.dtd">
<svg version="1.0" xmlns="http://www.w3.org/2000/svg"
 width="300.000000pt" height="300.000000pt" viewBox="0 0 300.000000 300.000000"
 preserveAspectRatio="xMidYMid meet">
<metadata>
Created by potrace 1.10, written by Peter Selinger 2001-2011
</metadata>
<g transform="translate(0.000000,300.000000) scale(0.050000,-0.050000)"
fill="#000000" stroke="none">
<path d="M2610 5049 c-220 -36 -724 -118 -1120 -181 -396 -64 -722 -117 -725
-118 -3 -2 80 -529 184 -1172 103 -642 199 -1242 213 -1333 l25 -165 339 -275
c187 -151 565 -458 842 -682 276 -224 526 -430 556 -458 69 -65 19 -94 687
398 320 235 752 552 960 706 l379 278 196 1338 c108 736 201 1349 206 1363 7
18 -70 37 -276 68 -1494 230 -1991 304 -2026 302 -22 -1 -220 -32 -440 -69z
m651 -140 c10 -6 66 -15 124 -19 58 -5 137 -14 175 -21 39 -6 111 -17 160 -22
50 -6 99 -17 110 -25 11 -8 54 -13 95 -11 41 2 75 -3 75 -12 0 -8 24 -13 53
-10 29 4 103 -6 164 -20 62 -14 119 -22 127 -16 9 5 27 3 40 -5 27 -17 97 -21
466 -26 318 -4 318 -4 -260 -172 -253 -73 -563 -163 -690 -200 -547 -160 -863
-250 -876 -251 -8 0 3 -10 23 -22 55 -31 152 -43 179 -20 13 11 56 24 94 29
39 6 70 12 70 14 0 1 22 7 49 12 27 5 54 17 61 27 6 11 28 16 49 13 22 -3 61
6 87 20 27 14 62 20 77 14 16 -6 41 5 55 25 16 22 39 31 60 22 19 -7 29 -4 23
6 -7 10 4 18 24 18 19 0 55 5 80 11 25 7 64 16 87 21 23 5 55 20 71 33 15 13
34 18 41 11 7 -7 23 -4 35 6 13 11 59 24 102 30 150 20 199 34 234 65 19 18
35 26 35 18 0 -8 11 -7 25 1 14 9 43 16 65 16 22 1 54 10 70 21 33 21 58 27
156 38 37 3 76 16 87 27 13 13 43 15 78 5 31 -9 60 -12 65 -8 25 26 -16 -295
-49 -377 -12 -30 -17 -78 -12 -107 6 -28 -6 -134 -25 -235 -20 -101 -41 -241
-48 -311 -19 -190 -35 -282 -52 -282 -7 0 -16 -61 -18 -135 -2 -74 -17 -198
-33 -275 -16 -77 -33 -180 -38 -230 -17 -173 -34 -268 -53 -304 -14 -26 -12
-36 6 -38 20 -1 21 -3 1 -11 -14 -6 -25 -32 -25 -59 0 -30 -12 -48 -31 -48
-17 0 -27 -8 -21 -17 12 -19 -102 -123 -134 -123 -32 0 -113 -74 -98 -91 8 -8
5 -10 -7 -3 -12 6 -94 -46 -183 -116 -89 -70 -168 -121 -176 -114 -7 8 -10 1
-7 -16 4 -16 -4 -28 -18 -25 -14 3 -25 -4 -25 -15 0 -11 -11 -20 -25 -20 -14
0 -69 -36 -122 -80 -54 -44 -105 -75 -116 -68 -10 6 -16 -1 -12 -16 3 -14 -6
-24 -20 -21 -14 3 -23 -6 -20 -20 3 -14 -6 -23 -20 -20 -14 3 -25 -5 -25 -17
0 -16 -10 -15 -30 2 -26 21 -29 20 -19 -5 12 -32 -151 -162 -204 -162 -14 0
-22 -5 -17 -13 4 -7 -20 -34 -55 -61 -89 -70 -256 -238 -318 -319 l-52 -70
-12 170 c-7 94 -21 844 -33 1669 -11 824 -23 1501 -25 1503 -3 3 -428 135
-945 295 -1257 389 -1180 351 -710 352 382 0 499 6 640 33 39 7 95 16 125 20
30 4 80 13 110 19 30 7 91 16 135 21 44 5 103 15 130 22 73 18 135 27 275 39
81 7 121 18 112 32 -7 12 -5 16 5 10 10 -6 54 -3 98 5 81 17 319 9 351 -11z
m-1361 -736 l850 -266 13 -139 c29 -324 19 -2691 -12 -2674 -77 43 -1335 1077
-1355 1113 -37 70 -378 2234 -351 2233 3 0 388 -120 855 -267z"/>
</g>
</svg>
